<?xml version="1.0" standalone="no"?>
<!DOCTYPE svg PUBLIC "-//W3C//DTD SVG 20010904//EN"
 "http://www.w3.org/TR/2001/REC-SVG-20010904/DTD/svg10.dtd">
<svg version="1.0" xmlns="http://www.w3.org/2000/svg"
 width="483.000000pt" height="483.000000pt" viewBox="0 0 483.000000 483.000000"
 preserveAspectRatio="xMidYMid meet">
<metadata>
Created by potrace 1.14, written by Peter Selinger 2001-2017
</metadata>
<g transform="translate(0.000000,483.000000) scale(0.100000,-0.100000)"
fill="#000000" stroke="none">
<path d="M3170 4396 c0 -13 24 -56 32 -56 4 0 8 -7 8 -16 0 -8 4 -13 9 -10 5
4 15 -7 23 -24 7 -16 16 -30 19 -30 6 0 10 -11 18 -45 1 -5 8 -13 16 -17 9 -6
12 -24 9 -65 -6 -81 -12 -138 -14 -140 -2 -2 -4 -7 -5 -13 -1 -5 -4 -12 -5
-15 -1 -3 -4 -9 -5 -15 -1 -5 -4 -12 -5 -15 -1 -3 -3 -13 -5 -22 -4 -41 -18
-72 -28 -66 -5 3 -7 1 -3 -5 3 -6 1 -23 -6 -39 -6 -15 -12 -30 -12 -33 -1 -3
-5 -11 -9 -17 -5 -7 -6 -13 -3 -13 4 0 -3 -16 -14 -37 -10 -20 -17 -40 -14
-45 3 -4 0 -8 -6 -8 -6 0 -9 -4 -6 -8 3 -5 -4 -23 -15 -41 -11 -18 -14 -29 -7
-25 10 6 11 5 1 -7 -25 -31 -70 -124 -66 -136 3 -7 0 -13 -6 -13 -6 0 -8 -7
-5 -15 4 -8 1 -15 -6 -15 -6 0 -8 -4 -5 -10 3 -5 1 -10 -4 -10 -6 0 -10 -3 -9
-7 1 -9 -16 -55 -33 -90 -6 -11 -8 -27 -4 -34 6 -8 4 -10 -5 -4 -10 6 -12 4
-7 -8 3 -10 3 -17 -1 -17 -5 0 -8 -10 -9 -22 -2 -33 -13 -81 -22 -93 -4 -5 -7
-34 -7 -62 1 -29 -1 -53 -5 -53 -9 0 -4 -103 5 -119 6 -9 5 -12 -1 -8 -7 4
-10 -9 -9 -37 0 -24 4 -42 9 -39 4 2 8 -6 9 -19 0 -13 2 -30 2 -38 1 -8 -2
-18 -6 -21 -4 -3 1 -15 12 -27 11 -11 20 -29 20 -38 0 -9 9 -25 21 -35 11 -9
20 -20 20 -23 -3 -24 2 -34 24 -46 13 -7 22 -16 20 -20 -6 -10 64 -70 81 -70
8 0 14 -5 14 -12 0 -6 3 -9 6 -5 3 3 17 -5 31 -19 13 -13 27 -24 31 -25 29 -3
46 -10 63 -25 13 -11 34 -16 68 -16 28 1 53 -3 56 -8 3 -5 23 -7 45 -5 22 2
42 0 44 -4 3 -4 28 -6 55 -5 l51 4 -4 -30 c-2 -17 0 -30 4 -30 4 0 10 -9 13
-20 3 -11 2 -18 -3 -15 -9 5 -20 -42 -12 -50 10 -10 9 -44 -1 -38 -7 4 -8 -1
-3 -13 13 -31 16 -83 5 -89 -5 -4 -7 -11 -4 -16 4 -5 3 -9 -2 -9 -4 0 -7 -29
-7 -65 1 -36 -2 -65 -5 -65 -4 0 -7 -12 -8 -27 0 -16 -3 -37 -7 -48 -20 -68
-28 -103 -29 -127 -1 -16 -4 -28 -7 -28 -3 0 -7 -8 -8 -17 -3 -32 -9 -58 -21
-86 -6 -16 -9 -33 -5 -38 3 -5 0 -9 -5 -9 -6 0 -10 -3 -9 -7 1 -5 -3 -17 -9
-28 -6 -11 -9 -28 -8 -38 2 -9 0 -15 -4 -12 -11 6 -35 -41 -27 -54 4 -6 2 -11
-5 -11 -7 0 -9 -3 -6 -7 4 -3 2 -12 -4 -19 -5 -7 -12 -25 -15 -40 -3 -16 -14
-37 -25 -47 -10 -10 -19 -22 -19 -28 0 -6 -4 -8 -9 -5 -5 3 -11 -8 -15 -26 -3
-17 -14 -37 -24 -45 -11 -10 -12 -12 -2 -8 8 4 4 -3 -10 -15 -14 -13 -24 -29
-22 -37 2 -9 -1 -12 -7 -8 -6 3 -11 2 -11 -4 0 -6 -10 -21 -23 -33 -13 -13
-21 -30 -19 -37 3 -8 0 -11 -7 -7 -6 4 -11 1 -11 -8 0 -8 -9 -18 -20 -21 -11
-4 -18 -11 -15 -16 4 -5 3 -9 -2 -9 -4 0 -34 -25 -67 -56 -32 -30 -61 -53 -63
-50 -3 3 -14 -6 -25 -19 -11 -14 -23 -23 -28 -20 -5 3 -12 0 -16 -6 -5 -8 -2
-10 7 -5 8 4 5 1 -6 -8 -11 -8 -25 -20 -32 -26 -7 -5 -16 -10 -20 -10 -5 0
-20 -8 -33 -17 -14 -10 -34 -19 -45 -21 -10 -1 -28 -11 -40 -21 -11 -10 -32
-17 -47 -16 -15 1 -25 -1 -23 -5 2 -4 -19 -7 -47 -7 -28 -1 -54 -6 -58 -13
-10 -17 -15 -17 -35 0 -17 13 -18 13 -10 0 6 -12 5 -12 -5 -3 -7 6 -18 9 -25
6 -8 -2 -23 0 -34 7 -16 8 -21 8 -21 -2 0 -8 -3 -9 -8 -3 -8 11 -41 13 -57 3
-10 -6 -57 -5 -85 3 -8 2 -21 12 -30 21 -8 10 -26 20 -40 22 -14 3 -26 5 -27
7 -2 1 -8 2 -13 3 -6 0 -15 7 -19 15 -5 8 -18 15 -28 16 -11 0 -41 14 -66 31
-42 26 -52 41 -48 67 1 4 -12 10 -29 13 -16 4 -28 9 -26 13 2 3 -2 12 -10 19
-8 7 -14 9 -14 5 0 -4 -20 13 -44 39 -25 25 -47 43 -51 40 -4 -4 -5 -2 -4 3 5
15 -32 85 -43 85 -12 0 -48 39 -48 51 0 5 -9 16 -19 26 -11 10 -22 31 -25 47
-3 16 -14 35 -26 43 -11 8 -18 18 -15 23 3 4 1 10 -5 12 -6 2 -12 14 -15 27
-2 13 -12 29 -21 36 -12 8 -13 14 -6 19 15 9 4 35 -26 66 -13 13 -19 26 -14
28 15 5 2 42 -15 42 -8 0 -12 4 -9 9 4 5 2 11 -3 13 -5 1 -10 23 -12 48 -1 25
-9 53 -17 62 -8 9 -11 21 -8 27 4 5 2 13 -4 16 -8 5 -7 11 1 22 8 9 9 17 3 21
-5 4 -11 16 -12 27 -2 11 -14 29 -27 41 -13 12 -21 25 -18 28 4 3 2 6 -3 6 -6
0 -10 10 -11 23 -2 59 -8 83 -21 100 -11 12 -12 17 -3 17 8 0 11 11 9 28 -2
16 -8 26 -16 24 -8 -1 -11 2 -7 8 3 5 3 10 -2 10 -13 0 -8 96 5 112 6 8 9 18
5 22 -11 11 -10 86 2 86 7 0 7 3 0 8 -10 6 -12 21 -5 40 6 14 8 27 9 56 1 22
4 27 12 19 11 -11 49 -6 49 7 0 5 16 23 35 41 19 19 35 39 35 46 0 7 4 13 8
13 12 0 9 43 -3 52 -6 5 -5 8 2 8 9 0 10 7 3 25 -7 20 -6 25 5 25 8 0 15 -5
15 -11 0 -5 5 -7 10 -4 6 3 10 2 10 -3 0 -6 14 -7 35 -2 22 5 35 4 35 -2 0 -7
5 -6 13 1 8 6 17 8 21 4 4 -4 33 -9 64 -10 31 -2 73 -4 92 -6 19 -2 39 -1 44
1 6 3 19 7 30 8 42 5 58 11 84 35 15 13 27 33 27 44 0 11 5 23 10 27 6 5 5 8
-2 8 -9 0 -10 7 -5 23 8 20 8 36 2 55 -1 4 -1 17 0 30 1 13 -4 30 -10 38 -10
11 -10 14 1 14 12 0 12 2 1 9 -17 11 -17 21 0 32 11 7 11 9 -1 9 -10 0 -11 3
-2 13 6 8 8 17 5 20 -11 10 -10 216 0 210 5 -4 6 0 1 8 -5 7 -8 28 -7 45 2 18
-2 35 -8 39 -7 4 -7 13 1 27 8 15 8 19 0 14 -8 -5 -8 0 0 18 7 13 8 33 4 43
-12 29 -13 93 -1 93 6 0 2 7 -8 15 -14 11 -16 15 -5 15 8 0 10 3 4 8 -5 4 -11
20 -12 36 -2 29 -31 82 -40 72 -3 -3 -12 2 -21 10 -12 13 -16 13 -23 2 -6 -9
-9 -10 -9 -1 0 12 -7 11 -47 -3 -29 -11 -108 -11 -115 0 -4 6 -12 5 -22 -3 -9
-8 -16 -10 -16 -5 0 5 -5 2 -10 -6 -7 -11 -10 -11 -10 -2 0 7 -4 11 -9 8 -13
-8 -18 12 -16 62 0 23 -1 42 -4 42 -4 0 -6 23 -6 50 -1 28 2 50 5 50 3 0 5 29
5 65 1 36 -3 65 -7 65 -5 0 -5 8 0 18 8 15 7 69 -1 142 -2 14 1 31 7 38 6 8 6
16 0 20 -9 7 -17 30 -16 47 5 63 3 75 -14 93 -10 11 -28 21 -39 23 -28 4 -75
-9 -75 -22 0 -6 -4 -8 -9 -5 -5 3 -14 -1 -21 -9 -14 -17 -20 -75 -7 -75 4 0 5
-5 2 -10 -4 -6 -1 -17 5 -25 7 -8 8 -15 3 -15 -13 0 -3 -53 11 -62 7 -5 6 -8
-3 -8 -11 0 -11 -3 -1 -15 7 -8 8 -15 3 -15 -5 0 -8 -34 -7 -75 1 -41 -1 -77
-5 -80 -10 -6 -2 -88 9 -95 4 -3 8 -34 9 -70 0 -36 1 -76 3 -90 3 -24 0 -25
-49 -26 -29 -1 -53 3 -53 8 0 5 -6 6 -12 1 -20 -11 -48 -14 -48 -4 0 5 -8 8
-17 6 -10 -2 -18 -4 -18 -5 0 -1 -15 -3 -32 -5 -18 -1 -33 1 -33 4 0 3 -25 6
-55 6 -30 0 -55 -2 -55 -6 0 -3 -27 -6 -60 -5 -33 1 -62 -3 -64 -9 -3 -5 -5
-4 -5 3 -1 7 -5 10 -11 7 -5 -3 -10 -1 -10 5 0 6 -4 8 -10 5 -5 -3 -8 0 -5 7
10 25 12 77 4 80 -4 2 -3 23 3 48 14 63 15 84 3 92 -6 5 -5 8 4 8 11 0 11 3 1
15 -7 9 -8 15 -2 15 12 0 10 33 -3 42 -6 5 -4 8 5 8 13 0 13 1 0 10 -8 5 -10
10 -4 10 6 0 11 12 12 28 1 15 3 56 5 92 2 40 0 68 -7 72 -8 5 -7 8 1 8 9 0 9
8 3 28 -6 15 -12 41 -14 57 -5 46 -16 65 -38 65 -11 0 -16 4 -12 11 5 8 1 8
-13 0 -11 -6 -23 -7 -27 -4 -3 3 -6 1 -6 -6 0 -7 -4 -9 -10 -6 -5 3 -10 3 -10
-2 0 -4 -11 -20 -23 -35 -18 -21 -23 -38 -22 -72 2 -31 -1 -43 -9 -39 -8 5 -8
3 0 -8 6 -8 9 -36 7 -64 -5 -77 -5 -78 2 -115 3 -19 6 -41 5 -47 -2 -34 -1
-63 4 -123 4 -36 8 -81 9 -100 2 -19 -1 -41 -7 -49 -8 -11 -8 -13 1 -7 15 9
17 -3 3 -24 -7 -12 -36 -15 -146 -16 -88 -1 -139 -5 -143 -12 -9 -15 -1 -357
10 -427 1 -5 -1 -22 -4 -37 -3 -16 -1 -28 4 -28 6 0 8 -4 5 -9 -4 -5 -2 -11 3
-13 5 -1 6 -18 4 -35 -3 -21 -9 -30 -17 -26 -8 5 -8 3 1 -8 6 -8 10 -29 8 -46
-1 -20 2 -33 9 -33 6 0 4 -5 -4 -10 -8 -5 -10 -10 -5 -10 6 0 10 -23 10 -52
-1 -29 4 -59 9 -67 9 -12 8 -13 -3 -6 -20 12 -5 -46 16 -62 9 -7 12 -13 6 -13
-15 0 -11 -21 11 -54 10 -17 23 -25 32 -22 8 3 14 1 14 -5 0 -6 5 -7 10 -4 6
3 10 2 10 -2 0 -5 25 -8 56 -8 30 1 57 -2 60 -7 3 -5 10 -5 16 -2 5 4 31 6 57
6 84 0 81 2 77 -39 -5 -57 28 -106 79 -119 14 -3 25 -13 25 -21 0 -8 5 -11 10
-8 6 3 16 3 23 -2 14 -8 28 -11 74 -15 17 -1 30 -5 27 -9 -2 -4 3 -12 12 -17
11 -6 16 -24 16 -68 0 -32 5 -64 10 -71 6 -7 5 -14 -2 -18 -8 -5 -8 -11 1 -21
6 -7 9 -20 6 -28 -3 -8 -1 -17 6 -20 9 -3 8 -5 -1 -5 -10 -1 -10 -6 -2 -21 6
-11 8 -25 5 -30 -3 -5 -1 -11 5 -15 6 -4 7 -12 3 -18 -4 -7 -6 -23 -4 -36 2
-15 -1 -21 -9 -16 -19 12 -6 -43 18 -70 12 -14 17 -25 11 -25 -8 0 -8 -4 -2
-12 5 -7 9 -22 9 -33 -1 -11 4 -23 9 -27 6 -5 5 -8 -3 -8 -9 0 -10 -6 -4 -17
4 -10 7 -28 6 -41 0 -12 3 -22 9 -22 5 0 4 -7 -3 -15 -9 -11 -9 -15 -1 -15 7
0 10 -4 6 -9 -3 -5 -1 -12 5 -16 6 -4 8 -11 5 -16 -4 -5 0 -12 8 -15 15 -5 19
-34 5 -34 -5 0 -6 -5 -2 -12 5 -7 8 -27 7 -45 0 -18 4 -33 9 -33 5 0 6 -4 3
-10 -3 -5 1 -10 9 -10 11 0 14 -8 11 -32 -4 -32 10 -62 25 -53 13 8 22 -13 22
-51 0 -20 2 -33 5 -30 9 9 31 -20 35 -45 1 -13 14 -36 28 -51 42 -44 50 -56
50 -75 0 -10 14 -27 30 -38 27 -18 34 -34 33 -72 -1 -7 3 -13 8 -13 5 0 9 -7
9 -15 0 -9 7 -18 15 -21 8 -4 13 -10 10 -14 -2 -4 4 -15 15 -25 11 -10 17 -21
15 -25 -3 -4 5 -10 16 -13 11 -3 23 -15 26 -26 3 -11 9 -19 13 -16 4 2 17 -10
30 -27 12 -17 18 -28 12 -24 -6 4 -8 -2 -5 -14 3 -10 8 -19 12 -18 17 2 34 -3
28 -8 -8 -8 57 -74 72 -74 6 0 11 -4 11 -10 0 -11 60 -44 60 -33 0 5 4 3 8 -2
4 -6 19 -16 34 -24 15 -8 30 -22 34 -33 3 -10 12 -18 20 -18 8 0 14 -4 14 -9
0 -5 13 -11 29 -14 16 -3 36 -13 44 -22 9 -8 29 -14 45 -13 17 1 36 -3 44 -10
8 -6 24 -10 36 -7 12 2 22 -1 22 -6 0 -6 5 -7 10 -4 6 3 10 1 10 -5 0 -6 4 -8
10 -5 21 13 50 13 50 1 0 -16 51 -28 64 -15 12 11 49 12 42 1 -6 -11 34 -9 51
1 20 12 77 15 97 5 11 -6 16 -6 12 0 -3 5 5 9 19 10 13 0 31 7 40 16 12 12 21
13 36 6 18 -10 23 -6 20 12 0 5 2 8 7 7 14 -2 52 13 52 21 0 10 39 23 63 20 9
-1 17 3 17 8 0 5 16 17 35 28 19 10 35 22 35 25 0 7 50 23 63 20 5 -1 6 3 3 8
-6 9 22 26 37 23 4 -1 7 3 7 9 0 5 5 7 10 4 6 -4 10 -3 9 2 -3 13 12 43 23 43
11 0 98 91 98 103 0 5 3 6 8 4 4 -3 16 5 27 16 11 11 14 16 6 12 -9 -5 -12 -4
-7 3 4 7 14 12 22 12 8 0 13 4 10 8 -3 5 8 23 24 40 16 18 26 32 22 32 -4 0 1
5 11 11 9 6 15 14 12 20 -4 5 -1 9 4 9 6 0 11 7 11 15 0 8 7 15 15 15 8 0 15
6 15 13 0 7 11 24 24 39 14 14 22 28 19 31 -3 3 4 18 15 32 11 14 19 35 17 45
-2 11 1 22 6 25 5 4 7 11 4 16 -4 5 -1 9 4 9 6 0 10 4 9 8 -2 4 9 20 25 35 15
16 27 38 27 50 0 13 8 39 19 60 10 20 14 34 7 30 -6 -4 -5 1 3 10 7 9 10 17 6
17 -4 0 -2 6 4 14 6 8 11 18 10 22 -6 32 4 75 22 95 12 14 16 25 9 27 -7 3 -7
8 -1 15 5 7 10 30 12 52 1 22 5 44 8 50 9 17 8 45 -2 45 -5 0 -4 6 2 13 6 8 8
17 4 20 -3 4 -2 7 3 7 5 0 8 17 8 37 -1 21 1 42 4 47 3 5 6 28 7 50 1 23 5 50
10 60 5 12 5 17 -1 13 -6 -3 -9 14 -7 46 2 29 5 84 6 124 2 81 17 106 65 110
57 3 82 8 82 14 0 3 10 5 23 4 23 -2 111 38 135 61 7 8 18 14 23 14 13 0 49
33 44 41 -3 4 2 10 11 13 10 4 13 2 9 -7 -4 -6 7 3 24 21 17 17 35 32 41 32 5
0 10 3 10 8 0 4 18 26 40 50 22 23 40 47 40 53 0 5 5 7 10 4 6 -3 10 1 10 9 0
9 5 16 11 16 5 0 7 5 4 10 -3 6 -2 10 3 10 9 0 46 66 47 83 0 4 7 12 15 17 8
5 11 10 6 10 -5 0 -3 6 3 13 6 8 8 17 4 20 -3 4 -1 7 4 7 6 0 10 11 8 25 -1
14 2 25 7 25 5 0 6 5 3 10 -4 6 -2 17 5 25 8 9 8 15 0 20 -7 4 -7 11 -2 18 11
15 13 57 4 57 -4 0 -7 16 -7 35 1 19 -1 35 -5 35 -3 0 -5 16 -5 35 1 19 -2 35
-6 35 -4 0 -13 20 -20 45 -7 25 -17 45 -21 45 -4 0 -7 3 -7 8 3 19 -3 33 -24
54 -13 13 -26 31 -30 41 -3 9 -11 17 -16 17 -6 0 -8 6 -5 13 5 13 -14 43 -58
87 -15 16 -24 31 -21 34 4 3 1 6 -6 6 -7 0 -9 5 -6 10 3 6 2 10 -3 10 -6 0
-19 16 -31 36 -13 21 -26 32 -33 28 -7 -4 -8 -3 -4 4 4 7 2 12 -4 12 -6 0 -8
5 -5 10 3 6 -1 10 -9 10 -10 0 -13 6 -9 17 4 10 2 14 -4 10 -7 -4 -10 0 -8 10
1 10 -3 24 -9 32 -8 11 -8 13 1 7 9 -5 11 -2 7 8 -3 9 -9 16 -13 17 -44 5 -78
35 -152 133 -16 21 -29 35 -29 30 0 -5 -8 3 -17 16 -10 14 -17 28 -15 33 1 4
-5 7 -13 7 -8 0 -15 3 -15 8 0 4 -22 32 -50 62 -27 30 -49 58 -50 63 0 4 -7 7
-15 7 -8 0 -15 5 -15 11 0 12 -17 29 -44 44 -10 6 -18 14 -17 18 2 10 -37 47
-49 47 -5 0 -10 7 -10 16 0 8 -4 13 -9 10 -5 -3 -21 7 -37 21 -16 15 -33 26
-37 25 -4 -1 -10 5 -13 13 -3 8 -10 12 -15 9 -5 -3 -9 2 -9 11 0 9 -4 14 -9
11 -5 -4 -11 -2 -13 2 -4 11 -146 82 -164 82 -8 0 -14 5 -14 12 0 6 -3 8 -7 5
-3 -4 -17 0 -30 8 -13 9 -23 13 -23 11z m240 -193 c8 -7 42 -40 75 -74 98
-101 127 -129 135 -129 4 0 13 -11 20 -25 7 -14 15 -23 18 -21 7 8 30 -19 24
-28 -3 -5 2 -6 12 -3 11 5 15 3 10 -4 -4 -7 7 -24 24 -39 17 -15 29 -30 25
-34 -3 -3 2 -6 11 -6 10 0 16 -5 14 -12 -2 -6 10 -26 26 -43 17 -18 40 -44 51
-60 11 -15 30 -37 43 -49 32 -29 60 -88 44 -94 -7 -2 -12 -12 -12 -23 0 -10
-9 -24 -20 -31 -11 -7 -20 -18 -20 -24 0 -15 -30 -72 -31 -59 0 8 -15 -20 -24
-45 -9 -25 -18 -39 -24 -36 -3 2 -15 -8 -25 -22 -11 -14 -13 -21 -6 -17 8 5 4
-5 -8 -22 -12 -17 -22 -36 -22 -42 0 -6 -5 -11 -11 -11 -5 0 -7 -4 -4 -10 3
-5 1 -10 -5 -10 -6 0 -9 -4 -5 -9 3 -6 -2 -14 -10 -19 -9 -4 -17 -18 -18 -30
-1 -12 -7 -22 -15 -22 -7 0 -10 -4 -7 -10 3 -5 0 -7 -8 -4 -7 2 -14 10 -14 17
-3 41 -8 67 -14 67 -3 0 -6 7 -6 15 0 8 4 15 8 15 4 0 6 6 4 13 -9 37 -18 57
-27 57 -5 0 -4 9 2 20 8 14 8 20 0 20 -7 0 -8 6 0 19 6 12 6 21 1 23 -6 2 -11
14 -13 28 -2 14 -7 30 -11 37 -4 6 -3 14 3 18 6 4 7 11 4 17 -3 5 -12 32 -19
59 -10 36 -10 49 -2 50 8 0 8 2 -1 6 -6 2 -10 9 -6 14 3 5 0 9 -6 9 -6 0 -8 5
-5 10 3 6 1 10 -6 10 -7 0 -10 3 -6 6 3 3 -1 23 -8 45 -8 21 -12 39 -9 39 2 0
-2 13 -10 29 -9 16 -12 31 -9 35 4 3 1 6 -6 6 -7 0 -10 4 -7 9 6 9 -7 56 -31
110 -8 18 -16 40 -17 47 -1 8 -8 20 -14 26 -7 7 -12 20 -12 30 0 10 -4 18 -10
18 -5 0 -9 3 -8 8 4 15 -13 50 -28 56 -8 3 -12 10 -9 16 3 5 -1 25 -10 44 -9
19 -14 40 -10 46 7 11 14 8 55 -27z m-20 -207 c0 -8 3 -16 8 -18 4 -1 23 -51
43 -110 19 -59 31 -104 25 -100 -6 3 -4 -5 5 -18 9 -14 15 -33 13 -42 -1 -10
2 -18 8 -18 6 0 8 -7 4 -15 -3 -9 0 -15 7 -15 9 0 12 -12 11 -32 -1 -18 3 -39
9 -47 10 -12 9 -13 -3 -6 -12 7 -13 6 -4 -6 7 -8 10 -26 8 -41 -1 -16 2 -28 7
-28 5 0 8 -3 7 -7 0 -5 2 -16 7 -27 5 -11 3 -26 -4 -38 -7 -12 -8 -17 -2 -13
7 4 11 -5 11 -24 0 -17 3 -31 8 -31 4 0 8 -26 9 -57 1 -64 5 -92 16 -110 4 -6
2 -15 -4 -19 -8 -5 -7 -9 2 -14 8 -6 14 -36 16 -87 5 -128 10 -191 17 -202 4
-6 1 -11 -6 -11 -8 0 -9 -3 -3 -8 6 -4 10 -23 10 -42 0 -19 3 -45 7 -58 6 -16
4 -21 -3 -16 -8 4 -9 -1 -4 -16 4 -13 9 -38 10 -56 2 -18 7 -39 11 -45 4 -7 3
-9 -3 -6 -6 4 -10 -6 -9 -23 1 -17 5 -30 9 -30 4 0 3 -8 -2 -18 -6 -11 -6 -24
1 -36 6 -11 7 -16 1 -13 -6 4 -10 -9 -9 -30 1 -27 -3 -37 -16 -39 -10 -1 -18
1 -18 5 0 4 -28 7 -62 6 -35 0 -67 1 -73 4 -5 3 -19 6 -30 7 -27 2 -85 26 -85
36 0 4 -6 5 -14 2 -8 -3 -17 -1 -20 4 -3 5 -16 7 -28 5 -15 -3 -33 5 -50 22
-16 14 -28 23 -28 19 0 -4 -11 5 -25 20 -14 15 -25 29 -25 32 0 3 -6 11 -12
19 -34 35 -50 59 -51 76 -1 10 -4 19 -8 19 -10 0 -30 61 -23 71 3 5 1 9 -3 9
-13 0 -11 64 2 72 6 5 4 8 -5 8 -13 0 -13 1 0 10 13 9 13 10 0 10 -13 0 -13 1
0 10 11 7 11 10 2 10 -7 0 -11 4 -8 8 2 4 6 40 7 81 2 40 7 75 11 77 4 3 5 11
1 19 -3 8 -1 15 4 15 5 0 10 11 11 25 3 46 5 55 12 55 4 0 7 6 8 13 6 44 9 57
19 69 10 12 23 61 26 101 1 9 4 17 8 17 10 0 30 51 24 61 -4 5 -1 9 5 9 7 0
10 7 6 15 -3 8 -1 15 4 15 5 0 7 9 5 19 -2 11 5 27 15 36 10 9 16 23 13 31 -3
8 -1 14 4 14 5 0 9 10 8 23 -1 12 6 36 16 54 10 17 15 34 12 37 -4 3 -1 6 6 6
7 0 11 6 8 14 -3 8 -3 17 1 20 3 4 7 16 9 28 2 12 8 28 15 35 6 7 8 16 5 20
-3 3 0 21 8 40 8 19 14 37 13 41 -1 4 4 20 10 35 7 16 12 37 12 47 0 16 12 27
33 29 4 1 7 -5 7 -13z m676 -532 c17 -16 34 -39 38 -51 4 -12 14 -24 22 -27
11 -4 12 -11 6 -23 -5 -10 -8 -26 -7 -36 2 -9 -5 -22 -14 -27 -10 -5 -24 -24
-31 -42 -8 -18 -22 -44 -32 -57 -10 -13 -15 -28 -11 -34 3 -6 1 -7 -5 -3 -7 4
-16 -2 -21 -17 -5 -13 -20 -36 -33 -50 -13 -14 -32 -37 -42 -52 -11 -14 -27
-35 -35 -45 -35 -41 -56 -74 -53 -83 4 -15 -20 -38 -34 -33 -8 3 -11 0 -7 -9
3 -8 -2 -18 -11 -21 -9 -3 -13 -10 -10 -15 3 -5 0 -9 -5 -9 -6 0 -11 -6 -11
-14 0 -7 -10 -21 -22 -30 -13 -9 -17 -14 -9 -10 7 4 3 -7 -10 -25 -12 -17 -25
-31 -28 -31 -11 0 -28 70 -19 76 5 3 5 11 -1 18 -6 7 -8 16 -4 20 10 10 11 46
1 46 -5 0 -6 6 -1 13 11 18 12 36 2 42 -9 6 8 44 25 56 5 4 5 12 2 18 -4 6 -2
11 3 11 6 0 11 11 11 24 0 14 10 32 23 41 12 8 20 16 19 18 -6 3 22 61 33 69
5 4 6 8 1 8 -5 0 -2 8 7 18 8 9 17 22 19 27 2 6 6 9 10 8 4 -2 5 3 2 11 -3 8
7 26 23 42 26 26 31 36 35 77 1 9 5 17 8 17 11 0 50 77 43 84 -3 3 1 6 11 6 9
0 14 5 11 10 -3 6 -1 10 6 10 7 0 9 3 6 7 -4 3 0 15 10 25 16 18 17 18 32 -6
9 -13 30 -37 47 -52z m-3117 -26 c7 2 17 -2 22 -9 6 -10 9 -10 9 -2 0 9 7 10
23 5 20 -8 39 -8 52 -2 6 3 44 3 48 0 1 -1 28 -3 59 -4 39 -2 55 1 51 8 -4 6
0 6 8 -1 9 -8 20 -9 29 -3 21 13 80 12 80 -1 0 -7 7 -8 18 -4 30 12 62 16 62
7 0 -5 32 -8 70 -7 39 1 70 -2 70 -6 0 -4 10 -6 22 -4 12 3 33 -2 46 -11 14
-9 21 -11 17 -5 -5 8 2 11 22 8 15 -2 36 0 47 5 11 6 21 6 25 1 3 -5 22 -8 41
-8 19 1 43 -2 52 -7 10 -5 22 -3 30 5 15 16 84 15 100 -1 6 -6 17 -8 24 -5 8
3 14 0 14 -7 0 -6 4 -9 8 -6 11 6 11 1 13 -104 1 -47 5 -92 9 -100 5 -8 4 -22
-1 -32 -6 -10 -5 -19 1 -23 7 -4 7 -13 -1 -26 -5 -11 -7 -29 -3 -41 5 -15 3
-19 -7 -13 -11 6 -12 5 -2 -5 9 -10 10 -17 2 -27 -7 -7 -8 -13 -3 -13 11 0 10
-51 0 -68 -4 -7 -2 -12 4 -12 7 0 8 -6 0 -19 -7 -14 -7 -22 0 -26 8 -5 7 -11
-1 -21 -6 -8 -7 -14 -2 -14 6 0 8 -12 5 -26 -2 -14 0 -29 6 -33 8 -5 7 -15 -3
-34 -8 -16 -10 -25 -3 -21 7 5 9 2 5 -9 -3 -9 -2 -28 2 -44 10 -35 4 -54 -15
-46 -8 3 -14 -1 -14 -8 0 -11 -3 -11 -10 1 -5 8 -10 11 -10 6 0 -5 -6 -4 -12
1 -18 14 -98 13 -98 -1 0 -7 -3 -7 -8 -1 -4 6 -18 11 -32 12 -78 6 -90 8 -90
15 0 5 -9 4 -20 -2 -11 -6 -20 -7 -20 -3 0 4 -27 8 -61 7 -34 0 -81 3 -105 6
-29 5 -44 3 -45 -4 0 -7 -2 -7 -5 -1 -4 10 -163 11 -189 1 -8 -3 -15 -1 -15 4
0 6 -10 6 -22 2 -13 -5 -30 -8 -38 -7 -8 1 -21 -3 -27 -8 -9 -6 -13 -5 -13 4
0 11 -2 11 -10 -1 -8 -12 -10 -12 -10 -1 0 11 -3 11 -15 1 -8 -7 -28 -10 -45
-8 -17 3 -30 0 -31 -6 0 -7 -3 -6 -5 1 -3 7 -11 10 -18 7 -7 -3 -23 -1 -37 4
-13 5 -33 6 -44 2 -11 -4 -23 -3 -27 3 -4 7 -11 7 -21 -2 -12 -9 -16 -9 -19 0
-3 9 -9 9 -27 -1 -18 -9 -22 -9 -16 0 6 9 2 9 -14 1 -13 -7 -21 -8 -21 -2 0 6
-6 8 -14 5 -19 -7 -46 23 -47 54 0 15 -3 36 -5 47 -4 19 -5 26 -4 65 0 8 -2
33 -5 55 -10 77 -12 220 -3 232 5 7 5 14 -1 17 -6 4 -8 13 -4 21 3 8 0 15 -6
15 -9 0 -9 5 -1 20 7 13 7 20 1 20 -7 0 -7 8 -1 24 5 13 6 27 2 30 -3 4 -7 12
-8 19 -22 134 -23 146 -10 156 12 10 111 10 121 -1 4 -3 21 0 38 7 18 7 40 10
52 5 11 -4 26 -5 34 -2z m3261 -177 c0 -6 5 -11 10 -11 6 0 10 -7 10 -15 0 -8
6 -15 13 -16 9 0 9 -2 0 -6 -14 -5 2 -42 25 -56 7 -5 10 -12 7 -17 -3 -4 2
-20 10 -36 7 -15 12 -31 9 -36 -3 -4 -1 -8 3 -8 5 0 10 -12 11 -27 1 -16 4
-49 6 -75 3 -33 1 -48 -7 -48 -8 0 -8 -3 -2 -8 10 -7 14 -33 5 -42 -3 -3 -12
-14 -20 -24 -13 -17 -13 -19 0 -11 9 6 6 -4 -8 -29 -12 -20 -22 -42 -22 -47 0
-15 -26 -39 -34 -32 -3 4 -6 -1 -6 -10 0 -25 -1 -27 -41 -67 -20 -20 -42 -46
-48 -58 -6 -12 -18 -22 -25 -22 -8 0 -28 -12 -45 -27 -52 -46 -89 -73 -100
-73 -6 0 -11 -4 -11 -8 0 -5 -18 -18 -40 -31 -22 -12 -40 -19 -40 -15 0 3 -7
1 -15 -6 -8 -7 -24 -10 -35 -7 -11 3 -20 2 -20 -2 0 -12 -80 -10 -82 3 -1 14
-5 30 -8 36 -1 3 -3 19 -5 36 -1 18 -5 39 -8 48 -4 10 -3 15 1 12 5 -3 8 17 6
44 -1 30 3 50 9 50 6 0 7 3 4 6 -3 4 5 15 18 26 14 11 23 24 20 29 -4 5 -1 9
5 9 6 0 8 5 5 10 -3 6 1 10 9 10 9 0 16 5 16 10 0 6 5 16 10 23 42 49 49 61
43 70 -3 6 -1 7 5 3 7 -4 12 -1 12 7 0 8 7 17 15 21 8 3 14 9 13 13 -2 4 2 10
7 12 18 8 33 26 28 34 -2 4 1 7 6 7 6 0 11 7 11 15 0 8 4 15 9 15 5 0 14 13
21 30 7 16 16 27 21 24 5 -3 9 0 9 5 0 18 3 25 14 38 30 33 36 43 30 43 -4 0
2 8 13 18 11 9 18 23 16 29 -3 7 2 16 11 19 9 3 23 21 32 40 9 19 21 31 27 27
6 -4 7 -1 2 7 -4 7 -4 15 1 19 5 3 15 19 22 34 11 25 14 27 27 13 8 -8 15 -19
15 -25z m-2946 -712 c-6 -10 101 -5 108 6 5 7 8 6 8 -1 0 -7 23 -11 60 -11 33
0 63 -2 66 -6 3 -3 12 -3 19 -1 7 3 15 -6 20 -23 4 -16 2 -29 -4 -31 -5 -2 -7
-10 -4 -19 4 -11 2 -14 -5 -9 -7 4 -12 1 -12 -8 0 -9 -3 -15 -7 -15 -5 1 -10
0 -13 -1 -20 -8 -46 -7 -56 1 -8 7 -14 7 -18 0 -5 -8 -131 -9 -131 -1 0 1 -66
9 -112 12 -7 1 -13 5 -13 10 0 5 -4 7 -9 4 -11 -7 -20 16 -17 40 2 11 -2 22
-8 27 -14 9 12 27 30 20 7 -2 21 0 31 6 19 10 74 11 67 0z"/>
</g>
</svg>
